<svg width="160" height="160" viewBox="0 0 160 160" fill="none" xmlns="http://www.w3.org/2000/svg">
<path opacity="0.7" d="M40 85H30C27.2386 85 25 87.2386 25 90V110C25 112.761 27.2386 115 30 115H40C42.7614 115 45 112.761 45 110V90C45 87.2386 42.7614 85 40 85Z" fill="url(#paint0_linear_24_2)"/>
<path d="M70 70H60C57.2386 70 55 72.2386 55 75V110C55 112.761 57.2386 115 60 115H70C72.7614 115 75 112.761 75 110V75C75 72.2386 72.7614 70 70 70Z" fill="url(#paint1_linear_24_2)"/>
<path opacity="0.85" d="M100 55H90C87.2386 55 85 57.2386 85 60V110C85 112.761 87.2386 115 90 115H100C102.761 115 105 112.761 105 110V60C105 57.2386 102.761 55 100 55Z" fill="url(#paint2_linear_24_2)"/>
<path d="M130 40H120C117.239 40 115 42.2386 115 45V110C115 112.761 117.239 115 120 115H130C132.761 115 135 112.761 135 110V45C135 42.2386 132.761 40 130 40Z" fill="url(#paint3_linear_24_2)"/>
<path d="M30 75C50 65 70 65 90 50C110 35 130 35 135 30" stroke="url(#paint4_linear_24_2)" stroke-width="6.25" stroke-linecap="round"/>
<path d="M30 80C32.7614 80 35 77.7614 35 75C35 72.2386 32.7614 70 30 70C27.2386 70 25 72.2386 25 75C25 77.7614 27.2386 80 30 80Z" fill="#FF7A59"/>
<path d="M65 70C67.7614 70 70 67.7614 70 65C70 62.2386 67.7614 60 65 60C62.2386 60 60 62.2386 60 65C60 67.7614 62.2386 70 65 70Z" fill="#FF6B4A"/>
<path d="M90 55C92.7614 55 95 52.7614 95 50C95 47.2386 92.7614 45 90 45C87.2386 45 85 47.2386 85 50C85 52.7614 87.2386 55 90 55Z" fill="#FF5A3C"/>
<path d="M125 39C127.761 39 130 36.7614 130 34C130 31.2386 127.761 29 125 29C122.239 29 120 31.2386 120 34C120 36.7614 122.239 39 125 39Z" fill="#FF4D2D"/>
<g opacity="0.08">
<path d="M25 125H135H25Z" fill="black"/>
<path d="M25 125H135" stroke="white" stroke-width="3.75"/>
</g>
<defs>
<linearGradient id="paint0_linear_24_2" x1="25" y1="115" x2="52.6923" y2="96.5385" gradientUnits="userSpaceOnUse">
<stop stop-color="#3A3A3A"/>
<stop offset="1" stop-color="#6B6B6B"/>
</linearGradient>
<linearGradient id="paint1_linear_24_2" x1="55" y1="70" x2="88.4021" y2="84.8454" gradientUnits="userSpaceOnUse">
<stop stop-color="#FF7A59"/>
<stop offset="1" stop-color="#FF4D2D"/>
</linearGradient>
<linearGradient id="paint2_linear_24_2" x1="85" y1="115" x2="121" y2="103" gradientUnits="userSpaceOnUse">
<stop stop-color="#3A3A3A"/>
<stop offset="1" stop-color="#6B6B6B"/>
</linearGradient>
<linearGradient id="paint3_linear_24_2" x1="115" y1="40" x2="152.344" y2="49.9585" gradientUnits="userSpaceOnUse">
<stop stop-color="#FF7A59"/>
<stop offset="1" stop-color="#FF4D2D"/>
</linearGradient>
<linearGradient id="paint4_linear_24_2" x1="30" y1="30" x2="62.5862" y2="106.034" gradientUnits="userSpaceOnUse">
<stop stop-color="#FF7A59"/>
<stop offset="1" stop-color="#FF4D2D"/>
</linearGradient>
</defs>
</svg>
